<?xml version="1.0" encoding="utf-8"?>
<!-- Generator: Adobe Illustrator 26.4.1, SVG Export Plug-In . SVG Version: 6.00 Build 0)  -->
<svg version="1.1" xmlns="http://www.w3.org/2000/svg" xmlns:xlink="http://www.w3.org/1999/xlink" x="0px" y="0px"
	 viewBox="0 0 300 300" style="enable-background:new 0 0 300 300;" xml:space="preserve">
<style type="text/css">
	.st0{fill:none;stroke:#9CBADD;stroke-miterlimit:10;}
	.st1{fill:none;stroke:#589BE0;stroke-miterlimit:10;}
</style>
<g id="Lag_1">
	<g>
		<line class="st0" x1="149.5" y1="16.5" x2="149.5" y2="-0.5"/>
	</g>
	<g>
		<line class="st0" x1="300" y1="149.5" x2="283.3" y2="149.5"/>
	</g>
	<g>
		<line class="st0" x1="17.5" y1="149.5" x2="0" y2="149.5"/>
	</g>
	<g>
		<line class="st0" x1="150" y1="149.5" x2="149.5" y2="149.5"/>
	</g>
	<g>
		<line class="st0" x1="149.7" y1="300.2" x2="149.7" y2="282.8"/>
	</g>
</g>
<g id="Lag_2">
	<line class="st1" x1="144.9" y1="16.6" x2="144.3" y2="-0.4"/>
	<line class="st1" x1="140.2" y1="16.9" x2="139" y2="-0.1"/>
	<line class="st1" x1="135.6" y1="17.3" x2="133.8" y2="0.3"/>
	<line class="st1" x1="131" y1="17.9" x2="128.6" y2="1"/>
	<line class="st1" x1="126.4" y1="18.6" x2="123.4" y2="1.8"/>
	<line class="st1" x1="121.9" y1="19.6" x2="118.3" y2="2.8"/>
	<line class="st1" x1="117.4" y1="20.6" x2="113.2" y2="4"/>
	<line class="st1" x1="112.9" y1="21.9" x2="108.2" y2="5.3"/>
	<line class="st1" x1="108.5" y1="23.3" x2="103.2" y2="6.8"/>
	<line class="st1" x1="104.1" y1="24.8" x2="98.2" y2="8.6"/>
	<line class="st1" x1="99.8" y1="26.5" x2="93.3" y2="10.4"/>
	<line class="st1" x1="95.6" y1="28.3" x2="88.5" y2="12.5"/>
	<line class="st1" x1="91.4" y1="30.3" x2="83.7" y2="14.7"/>
	<line class="st1" x1="87.3" y1="32.5" x2="79.1" y2="17.1"/>
	<line class="st1" x1="83.2" y1="34.7" x2="74.5" y2="19.6"/>
	<line class="st1" x1="79.3" y1="37.2" x2="70" y2="22.3"/>
	<line class="st1" x1="75.4" y1="39.7" x2="65.6" y2="25.1"/>
	<line class="st1" x1="71.7" y1="42.4" x2="61.3" y2="28.1"/>
	<line class="st1" x1="68" y1="45.2" x2="57.2" y2="31.3"/>
	<line class="st1" x1="64.4" y1="48.1" x2="53.1" y2="34.6"/>
	<line class="st1" x1="61" y1="51.2" x2="49.1" y2="38"/>
	<line class="st1" x1="57.6" y1="54.4" x2="45.3" y2="41.6"/>
	<line class="st1" x1="54.4" y1="57.7" x2="41.6" y2="45.3"/>
	<line class="st1" x1="51.3" y1="61" x2="38" y2="49.1"/>
	<line class="st1" x1="48.2" y1="64.5" x2="34.6" y2="53.1"/>
	<line class="st1" x1="45.4" y1="68.1" x2="31.3" y2="57.2"/>
	<line class="st1" x1="42.6" y1="71.8" x2="28.1" y2="61.3"/>
	<line class="st1" x1="40" y1="75.6" x2="25.1" y2="65.6"/>
	<line class="st1" x1="37.5" y1="79.5" x2="22.3" y2="70"/>
	<line class="st1" x1="35.1" y1="83.5" x2="19.6" y2="74.5"/>
	<line class="st1" x1="32.9" y1="87.5" x2="17.1" y2="79.1"/>
	<line class="st1" x1="30.8" y1="91.6" x2="14.7" y2="83.7"/>
	<line class="st1" x1="28.9" y1="95.8" x2="12.5" y2="88.5"/>
	<line class="st1" x1="27.1" y1="100" x2="10.4" y2="93.3"/>
	<line class="st1" x1="25.4" y1="104.3" x2="8.6" y2="98.2"/>
	<line class="st1" x1="23.9" y1="108.7" x2="6.8" y2="103.2"/>
	<line class="st1" x1="22.6" y1="113.1" x2="5.3" y2="108.2"/>
	<line class="st1" x1="21.4" y1="117.6" x2="4" y2="113.2"/>
	<line class="st1" x1="20.4" y1="122.1" x2="2.8" y2="118.3"/>
	<line class="st1" x1="19.5" y1="126.6" x2="1.8" y2="123.4"/>
	<line class="st1" x1="18.8" y1="131.1" x2="1" y2="128.6"/>
	<line class="st1" x1="18.2" y1="135.7" x2="0.3" y2="133.8"/>
	<line class="st1" x1="17.8" y1="140.3" x2="-0.1" y2="139"/>
	<line class="st1" x1="17.6" y1="144.9" x2="-0.4" y2="144.3"/>
	<line class="st1" x1="17.6" y1="154.1" x2="-0.4" y2="154.7"/>
	<line class="st1" x1="17.8" y1="158.7" x2="-0.1" y2="160"/>
	<line class="st1" x1="18.2" y1="163.3" x2="0.3" y2="165.2"/>
	<line class="st1" x1="18.7" y1="167.9" x2="1" y2="170.4"/>
	<line class="st1" x1="19.4" y1="172.4" x2="1.8" y2="175.6"/>
	<line class="st1" x1="20.2" y1="177" x2="2.8" y2="180.7"/>
	<line class="st1" x1="21.2" y1="181.5" x2="4" y2="185.8"/>
	<line class="st1" x1="22.4" y1="185.9" x2="5.3" y2="190.9"/>
	<line class="st1" x1="23.7" y1="190.4" x2="6.8" y2="195.9"/>
	<line class="st1" x1="25.2" y1="194.7" x2="8.6" y2="200.8"/>
	<line class="st1" x1="26.8" y1="199.1" x2="10.4" y2="205.7"/>
	<line class="st1" x1="28.6" y1="203.3" x2="12.5" y2="210.5"/>
	<line class="st1" x1="30.5" y1="207.5" x2="14.7" y2="215.3"/>
	<line class="st1" x1="32.6" y1="211.7" x2="17.1" y2="219.9"/>
	<line class="st1" x1="34.8" y1="215.7" x2="19.6" y2="224.5"/>
	<line class="st1" x1="37.1" y1="219.7" x2="22.3" y2="229"/>
	<line class="st1" x1="39.6" y1="223.6" x2="25.1" y2="233.4"/>
	<line class="st1" x1="42.2" y1="227.4" x2="28.1" y2="237.7"/>
	<line class="st1" x1="45" y1="231.1" x2="31.3" y2="241.9"/>
	<line class="st1" x1="47.9" y1="234.8" x2="34.6" y2="245.9"/>
	<line class="st1" x1="50.9" y1="238.3" x2="38" y2="249.9"/>
	<line class="st1" x1="54" y1="241.7" x2="41.6" y2="253.7"/>
	<line class="st1" x1="57.2" y1="245" x2="45.3" y2="257.4"/>
	<line class="st1" x1="60.6" y1="248.2" x2="49.1" y2="261"/>
	<line class="st1" x1="64.1" y1="251.3" x2="53.1" y2="264.4"/>
	<line class="st1" x1="67.7" y1="254.3" x2="57.2" y2="267.7"/>
	<line class="st1" x1="71.3" y1="257.1" x2="61.3" y2="270.9"/>
	<line class="st1" x1="75.1" y1="259.8" x2="65.6" y2="273.9"/>
	<line class="st1" x1="79" y1="262.4" x2="70" y2="276.7"/>
	<line class="st1" x1="82.9" y1="264.8" x2="74.5" y2="279.4"/>
	<line class="st1" x1="87" y1="267.1" x2="79.1" y2="281.9"/>
	<line class="st1" x1="91.1" y1="269.3" x2="83.7" y2="284.3"/>
	<line class="st1" x1="95.3" y1="271.3" x2="88.5" y2="286.5"/>
	<line class="st1" x1="99.5" y1="273.1" x2="93.3" y2="288.6"/>
	<line class="st1" x1="103.9" y1="274.9" x2="98.2" y2="290.5"/>
	<line class="st1" x1="108.3" y1="276.4" x2="103.2" y2="292.2"/>
	<line class="st1" x1="112.7" y1="277.8" x2="108.2" y2="293.7"/>
	<line class="st1" x1="117.2" y1="279.1" x2="113.2" y2="295"/>
	<line class="st1" x1="121.7" y1="280.2" x2="118.3" y2="296.2"/>
	<line class="st1" x1="126.3" y1="281.1" x2="123.4" y2="297.2"/>
	<line class="st1" x1="130.9" y1="281.8" x2="128.6" y2="298"/>
	<line class="st1" x1="135.5" y1="282.4" x2="133.8" y2="298.7"/>
	<line class="st1" x1="140.2" y1="282.9" x2="139" y2="299.1"/>
	<line class="st1" x1="144.8" y1="283.1" x2="144.3" y2="299.4"/>
	<line class="st1" x1="154.7" y1="299.4" x2="154.2" y2="283.2"/>
	<line class="st1" x1="160" y1="299.1" x2="158.8" y2="283"/>
	<line class="st1" x1="165.2" y1="298.7" x2="163.5" y2="282.6"/>
	<line class="st1" x1="170.4" y1="298" x2="168.1" y2="282.1"/>
	<line class="st1" x1="175.6" y1="297.2" x2="172.8" y2="281.4"/>
	<line class="st1" x1="180.7" y1="296.2" x2="177.4" y2="280.5"/>
	<line class="st1" x1="185.8" y1="295" x2="181.9" y2="279.5"/>
	<line class="st1" x1="190.9" y1="293.7" x2="186.4" y2="278.3"/>
	<line class="st1" x1="195.9" y1="292.2" x2="190.9" y2="277"/>
	<line class="st1" x1="200.8" y1="290.5" x2="195.3" y2="275.5"/>
	<line class="st1" x1="205.7" y1="288.6" x2="199.7" y2="273.8"/>
	<line class="st1" x1="210.5" y1="286.5" x2="204" y2="272"/>
	<line class="st1" x1="215.3" y1="284.3" x2="208.3" y2="270"/>
	<line class="st1" x1="219.9" y1="281.9" x2="212.4" y2="267.9"/>
	<line class="st1" x1="224.5" y1="279.4" x2="216.5" y2="265.6"/>
	<line class="st1" x1="229" y1="276.7" x2="220.6" y2="263.2"/>
	<line class="st1" x1="233.4" y1="273.9" x2="224.5" y2="260.7"/>
	<line class="st1" x1="237.7" y1="270.9" x2="228.3" y2="258"/>
	<line class="st1" x1="241.9" y1="267.7" x2="232" y2="255.1"/>
	<line class="st1" x1="245.9" y1="264.4" x2="235.7" y2="252.2"/>
	<line class="st1" x1="249.9" y1="261" x2="239.2" y2="249.1"/>
	<line class="st1" x1="253.7" y1="257.4" x2="242.6" y2="245.9"/>
	<line class="st1" x1="257.4" y1="253.7" x2="245.9" y2="242.6"/>
	<line class="st1" x1="261" y1="249.9" x2="249.1" y2="239.2"/>
	<line class="st1" x1="264.4" y1="245.9" x2="252.2" y2="235.7"/>
	<line class="st1" x1="267.7" y1="241.9" x2="255.1" y2="232"/>
	<line class="st1" x1="270.9" y1="237.7" x2="257.9" y2="228.3"/>
	<line class="st1" x1="273.9" y1="233.4" x2="260.6" y2="224.4"/>
	<line class="st1" x1="276.7" y1="229" x2="263.2" y2="220.5"/>
	<line class="st1" x1="279.4" y1="224.5" x2="265.6" y2="216.5"/>
	<line class="st1" x1="281.9" y1="219.9" x2="267.8" y2="212.4"/>
	<line class="st1" x1="284.3" y1="215.3" x2="270" y2="208.2"/>
	<line class="st1" x1="286.5" y1="210.5" x2="271.9" y2="204"/>
	<line class="st1" x1="288.6" y1="205.7" x2="273.7" y2="199.7"/>
	<line class="st1" x1="290.5" y1="200.8" x2="275.4" y2="195.3"/>
	<line class="st1" x1="292.2" y1="195.9" x2="276.9" y2="190.9"/>
	<line class="st1" x1="293.7" y1="190.9" x2="278.3" y2="186.4"/>
	<line class="st1" x1="295" y1="185.8" x2="279.5" y2="181.9"/>
	<line class="st1" x1="296.2" y1="180.7" x2="280.5" y2="177.4"/>
	<line class="st1" x1="297.2" y1="175.6" x2="281.4" y2="172.8"/>
	<line class="st1" x1="298" y1="170.4" x2="282.1" y2="168.1"/>
	<line class="st1" x1="298.7" y1="165.2" x2="282.6" y2="163.5"/>
	<line class="st1" x1="299.1" y1="160" x2="283" y2="158.8"/>
	<line class="st1" x1="299.4" y1="154.7" x2="283.2" y2="154.2"/>
	<line class="st1" x1="299.4" y1="144.3" x2="283.2" y2="144.8"/>
	<line class="st1" x1="299.1" y1="139" x2="283" y2="140.2"/>
	<line class="st1" x1="298.7" y1="133.8" x2="282.5" y2="135.5"/>
	<line class="st1" x1="298" y1="128.6" x2="282" y2="130.9"/>
	<line class="st1" x1="297.2" y1="123.4" x2="281.2" y2="126.3"/>
	<line class="st1" x1="296.2" y1="118.3" x2="280.4" y2="121.7"/>
	<line class="st1" x1="295" y1="113.2" x2="279.3" y2="117.1"/>
	<line class="st1" x1="293.7" y1="108.2" x2="278.1" y2="112.6"/>
	<line class="st1" x1="292.2" y1="103.2" x2="276.7" y2="108.2"/>
	<line class="st1" x1="290.5" y1="98.2" x2="275.2" y2="103.8"/>
	<line class="st1" x1="288.6" y1="93.3" x2="273.5" y2="99.4"/>
	<line class="st1" x1="286.5" y1="88.5" x2="271.6" y2="95.1"/>
	<line class="st1" x1="284.3" y1="83.7" x2="269.6" y2="90.9"/>
	<line class="st1" x1="281.9" y1="79.1" x2="267.5" y2="86.8"/>
	<line class="st1" x1="279.4" y1="74.5" x2="265.2" y2="82.7"/>
	<line class="st1" x1="276.7" y1="70" x2="262.8" y2="78.7"/>
	<line class="st1" x1="273.9" y1="65.6" x2="260.3" y2="74.8"/>
	<line class="st1" x1="270.9" y1="61.3" x2="257.6" y2="71"/>
	<line class="st1" x1="267.7" y1="57.2" x2="254.8" y2="67.3"/>
	<line class="st1" x1="264.4" y1="53.1" x2="251.8" y2="63.7"/>
	<line class="st1" x1="261" y1="49.1" x2="248.7" y2="60.1"/>
	<line class="st1" x1="257.4" y1="45.3" x2="245.6" y2="56.7"/>
	<line class="st1" x1="253.7" y1="41.6" x2="242.2" y2="53.5"/>
	<line class="st1" x1="249.9" y1="38" x2="238.8" y2="50.3"/>
	<line class="st1" x1="245.9" y1="34.6" x2="235.3" y2="47.2"/>
	<line class="st1" x1="241.9" y1="31.3" x2="231.7" y2="44.3"/>
	<line class="st1" x1="237.7" y1="28.1" x2="227.9" y2="41.5"/>
	<line class="st1" x1="233.4" y1="25.1" x2="224.1" y2="38.9"/>
	<line class="st1" x1="229" y1="22.3" x2="220.2" y2="36.3"/>
	<line class="st1" x1="224.5" y1="19.6" x2="216.2" y2="34"/>
	<line class="st1" x1="219.9" y1="17.1" x2="212.1" y2="31.7"/>
	<line class="st1" x1="215.3" y1="14.7" x2="208" y2="29.6"/>
	<line class="st1" x1="210.5" y1="12.5" x2="203.8" y2="27.7"/>
	<line class="st1" x1="205.7" y1="10.4" x2="199.4" y2="25.9"/>
	<line class="st1" x1="200.8" y1="8.6" x2="195.1" y2="24.2"/>
	<line class="st1" x1="195.9" y1="6.8" x2="190.7" y2="22.7"/>
	<line class="st1" x1="190.9" y1="5.3" x2="186.2" y2="21.4"/>
	<line class="st1" x1="185.8" y1="4" x2="181.7" y2="20.2"/>
	<line class="st1" x1="180.7" y1="2.8" x2="177.2" y2="19.2"/>
	<line class="st1" x1="175.6" y1="1.8" x2="172.6" y2="18.4"/>
	<line class="st1" x1="170.4" y1="1" x2="168" y2="17.6"/>
	<line class="st1" x1="165.2" y1="0.3" x2="163.4" y2="17.1"/>
	<line class="st1" x1="160" y1="-0.1" x2="158.8" y2="16.8"/>
	<line class="st1" x1="154.7" y1="-0.4" x2="154.1" y2="16.5"/>
</g>
<g id="Lag_3">
</g>
</svg>
