<?xml version="1.0" encoding="utf-8"?>
<!-- Generator: Adobe Illustrator 26.4.1, SVG Export Plug-In . SVG Version: 6.00 Build 0)  -->
<svg version="1.1" id="Lag_1" xmlns="http://www.w3.org/2000/svg" xmlns:xlink="http://www.w3.org/1999/xlink" x="0px" y="0px"
	 viewBox="0 0 300 300" style="enable-background:new 0 0 300 300;" xml:space="preserve">
<style type="text/css">
	.st0{fill:none;stroke:#9CBADD;stroke-width:2;stroke-miterlimit:10;}
	.st1{fill:none;stroke:#589BE0;stroke-width:2;stroke-miterlimit:10;}
</style>
<line class="st0" x1="150" y1="25" x2="150" y2="0"/>
<line class="st1" x1="141.3" y1="25.3" x2="139.5" y2="0.4"/>
<line class="st1" x1="141.3" y1="25.3" x2="139.5" y2="0.4"/>
<line class="st1" x1="132.6" y1="26.2" x2="129.1" y2="1.5"/>
<line class="st1" x1="124" y1="27.7" x2="118.8" y2="3.3"/>
<line class="st1" x1="115.5" y1="29.8" x2="108.7" y2="5.8"/>
<line class="st1" x1="107.2" y1="32.5" x2="98.7" y2="9.1"/>
<line class="st1" x1="99.1" y1="35.8" x2="89" y2="13"/>
<line class="st1" x1="91.3" y1="39.6" x2="79.6" y2="17.6"/>
<line class="st1" x1="83.8" y1="44" x2="70.5" y2="22.8"/>
<line class="st1" x1="76.5" y1="48.9" x2="61.8" y2="28.6"/>
<line class="st1" x1="69.7" y1="54.2" x2="53.6" y2="35.1"/>
<line class="st1" x1="63.2" y1="60.1" x2="45.8" y2="42.1"/>
<line class="st1" x1="57.1" y1="66.4" x2="38.5" y2="49.6"/>
<line class="st1" x1="51.5" y1="73" x2="31.8" y2="57.7"/>
<line class="st1" x1="46.4" y1="80.1" x2="25.6" y2="66.1"/>
<line class="st1" x1="41.7" y1="87.5" x2="20.1" y2="75"/>
<line class="st1" x1="37.6" y1="95.2" x2="15.2" y2="84.2"/>
<line class="st1" x1="34.1" y1="103.2" x2="10.9" y2="93.8"/>
<line class="st1" x1="31.1" y1="111.4" x2="7.3" y2="103.7"/>
<line class="st1" x1="28.7" y1="119.8" x2="4.5" y2="113.7"/>
<line class="st1" x1="26.9" y1="128.3" x2="2.3" y2="123.9"/>
<line class="st1" x1="25.7" y1="136.9" x2="0.8" y2="134.3"/>
<line class="st0" x1="25.1" y1="145.6" x2="0.1" y2="144.8"/>
<line class="st1" x1="25.1" y1="154.4" x2="0.1" y2="155.2"/>
<line class="st1" x1="25.7" y1="163.1" x2="0.8" y2="165.7"/>
<line class="st1" x1="26.9" y1="171.7" x2="2.3" y2="176.1"/>
<line class="st1" x1="28.7" y1="180.2" x2="4.5" y2="186.3"/>
<line class="st1" x1="31.1" y1="188.6" x2="7.3" y2="196.4"/>
<line class="st1" x1="34.1" y1="196.8" x2="10.9" y2="206.2"/>
<line class="st1" x1="37.6" y1="204.8" x2="15.2" y2="215.8"/>
<line class="st1" x1="41.7" y1="212.5" x2="20.1" y2="225"/>
<line class="st1" x1="46.4" y1="219.9" x2="25.6" y2="233.9"/>
<line class="st1" x1="51.5" y1="227" x2="31.8" y2="242.4"/>
<line class="st1" x1="57.1" y1="233.6" x2="38.5" y2="250.4"/>
<line class="st1" x1="63.2" y1="239.9" x2="45.8" y2="257.9"/>
<line class="st1" x1="69.7" y1="245.8" x2="53.6" y2="264.9"/>
<line class="st1" x1="76.5" y1="251.1" x2="61.8" y2="271.4"/>
<line class="st1" x1="83.8" y1="256" x2="70.5" y2="277.2"/>
<line class="st1" x1="91.3" y1="260.4" x2="79.6" y2="282.4"/>
<line class="st1" x1="99.1" y1="264.2" x2="89" y2="287"/>
<line class="st1" x1="107.2" y1="267.5" x2="98.7" y2="291"/>
<line class="st1" x1="115.5" y1="270.2" x2="108.7" y2="294.2"/>
<line class="st1" x1="124" y1="272.3" x2="118.8" y2="296.7"/>
<line class="st1" x1="132.6" y1="273.8" x2="129.1" y2="298.5"/>
<line class="st1" x1="141.3" y1="274.7" x2="139.5" y2="299.6"/>
<line class="st0" x1="150" y1="300" x2="150" y2="275"/>
<line class="st1" x1="160.5" y1="299.6" x2="158.7" y2="274.7"/>
<line class="st1" x1="170.9" y1="298.5" x2="167.4" y2="273.8"/>
<line class="st1" x1="181.2" y1="296.7" x2="176" y2="272.3"/>
<line class="st1" x1="191.4" y1="294.2" x2="184.5" y2="270.2"/>
<line class="st1" x1="201.3" y1="291" x2="192.8" y2="267.5"/>
<line class="st1" x1="211" y1="287" x2="200.9" y2="264.2"/>
<line class="st1" x1="220.4" y1="282.4" x2="208.7" y2="260.4"/>
<line class="st1" x1="229.5" y1="277.2" x2="216.2" y2="256"/>
<line class="st1" x1="238.2" y1="271.4" x2="223.5" y2="251.1"/>
<line class="st1" x1="246.4" y1="264.9" x2="230.4" y2="245.8"/>
<line class="st1" x1="254.2" y1="257.9" x2="236.8" y2="239.9"/>
<line class="st1" x1="261.5" y1="250.4" x2="242.9" y2="233.6"/>
<line class="st1" x1="268.2" y1="242.4" x2="248.5" y2="227"/>
<line class="st1" x1="274.4" y1="233.9" x2="253.6" y2="219.9"/>
<line class="st1" x1="279.9" y1="225" x2="258.3" y2="212.5"/>
<line class="st1" x1="284.8" y1="215.8" x2="262.4" y2="204.8"/>
<line class="st1" x1="289.1" y1="206.2" x2="265.9" y2="196.8"/>
<line class="st1" x1="292.7" y1="196.4" x2="268.9" y2="188.6"/>
<line class="st1" x1="295.5" y1="186.3" x2="271.3" y2="180.2"/>
<line class="st1" x1="297.7" y1="176.1" x2="273.1" y2="171.7"/>
<line class="st1" x1="299.2" y1="165.7" x2="274.3" y2="163.1"/>
<line class="st1" x1="299.9" y1="155.2" x2="274.9" y2="154.4"/>
<line class="st0" x1="299.9" y1="144.8" x2="274.9" y2="145.6"/>
<line class="st1" x1="299.2" y1="134.3" x2="274.3" y2="136.9"/>
<line class="st1" x1="297.7" y1="123.9" x2="273.1" y2="128.3"/>
<line class="st1" x1="295.5" y1="113.7" x2="271.3" y2="119.8"/>
<line class="st1" x1="292.7" y1="103.7" x2="268.9" y2="111.4"/>
<line class="st1" x1="289.1" y1="93.8" x2="265.9" y2="103.2"/>
<line class="st1" x1="284.8" y1="84.2" x2="262.4" y2="95.2"/>
<line class="st1" x1="279.9" y1="75" x2="258.3" y2="87.5"/>
<line class="st1" x1="274.4" y1="66.1" x2="253.6" y2="80.1"/>
<line class="st1" x1="268.2" y1="57.7" x2="248.5" y2="73"/>
<line class="st1" x1="261.5" y1="49.6" x2="242.9" y2="66.4"/>
<line class="st1" x1="254.2" y1="42.1" x2="236.8" y2="60.1"/>
<line class="st1" x1="246.4" y1="35.1" x2="230.4" y2="54.2"/>
<line class="st1" x1="238.2" y1="28.6" x2="223.5" y2="48.9"/>
<line class="st1" x1="229.5" y1="22.8" x2="216.2" y2="44"/>
<line class="st1" x1="220.4" y1="17.6" x2="208.7" y2="39.6"/>
<line class="st1" x1="211" y1="13" x2="200.9" y2="35.8"/>
<line class="st1" x1="201.3" y1="9.1" x2="192.8" y2="32.5"/>
<line class="st1" x1="191.4" y1="5.8" x2="184.5" y2="29.8"/>
<line class="st1" x1="181.2" y1="3.3" x2="176" y2="27.7"/>
<line class="st1" x1="170.9" y1="1.5" x2="167.4" y2="26.2"/>
<line class="st1" x1="160.5" y1="0.4" x2="158.7" y2="25.3"/>
</svg>
