<?xml version="1.0" encoding="utf-8"?>
<!-- Generator: Adobe Illustrator 24.0.2, SVG Export Plug-In . SVG Version: 6.00 Build 0)  -->
<svg version="1.1" id="Layer_1" xmlns="http://www.w3.org/2000/svg" xmlns:xlink="http://www.w3.org/1999/xlink" x="0px" y="0px"
	 viewBox="0 0 300 300" style="enable-background:new 0 0 300 300;" xml:space="preserve">
<style type="text/css">
	.st0{fill:#FFFFFF;stroke:#000000;stroke-width:6;stroke-linecap:round;stroke-linejoin:round;stroke-miterlimit:10;}
	.st1{fill:none;stroke:#000000;stroke-width:6;stroke-linecap:round;stroke-linejoin:round;stroke-miterlimit:10;}
	.st2{fill:#EDFF4B;stroke:#000000;stroke-miterlimit:10;}
	.st3{fill:#0DA3FF;stroke:#000000;stroke-width:2;stroke-miterlimit:10;}
</style>
<g>
	<path class="st0" d="M81.32,176.32v-0.03C68.62,161.02,61,141.41,61,120.03C61,71.41,100.41,32,149.03,32s88.03,39.41,88.03,88.03
		s-39.41,88.03-88.03,88.03c-5.43,0-10.76-0.5-15.92-1.46h-0.03"/>
	<polyline class="st1" points="81.32,176.29 79.44,193.17 75.11,232 110.9,216.33 133.11,206.6 	"/>
	<circle class="st2" cx="174.53" cy="89.76" r="29.83"/>
	<path class="st3" d="M177.4,133.06c0.72,1.84,1.13,3.84,1.13,5.93c0,8.97-7.27,16.24-16.24,16.24c-7.9,0-14.49-5.64-15.94-13.11
		c-1.05,0.41-2.15,0.72-3.28,0.94c-1.58,6.19-7.2,10.77-13.89,10.77c-5.16,0-9.7-2.73-12.22-6.83c-1.78,0.54-3.66,0.83-5.62,0.83
		c-10.6,0-19.19-8.59-19.19-19.19c0-10.61,8.59-19.2,19.19-19.2h0.11c0.92-7.9,7.63-14.02,15.76-14.02c1.52,0,2.98,0.21,4.37,0.61
		c2.65-3.93,7.15-6.52,12.25-6.52c5.74,0,10.71,3.27,13.14,8.05c3.51-2.73,7.91-4.37,12.69-4.37c11.41,0,20.68,9.26,20.68,20.68
		C190.33,122.58,184.98,130.01,177.4,133.06z"/>
</g>
</svg>
